<?xml version="1.0" encoding="UTF-8"?>
<svg id="Layer_1" data-name="Layer 1" xmlns="http://www.w3.org/2000/svg" viewBox="0 0 83.14 120.11">
  <path d="m81.79,7.03c-9.08-2.6-22.53-5.85-36.05-4.65-.6.05-1.2.12-1.8.19-13.78,1.64-25.56,8.05-32.34,17.59-4.77,6.72-7.57,13.08-8.79,20.01-1.37,7.74-.73,16.31,1.95,26.2,1.89,6.96,5.16,13.25,9.73,18.69,4.36,5.19,9.92,9.63,16.5,13.19,12.23,6.6,27.74,10.04,44.98,10l-12.04-7.37c-.5-.3-.65-.95-.35-1.45.3-.49.96-.65,1.45-.35l15.15,9.27c.31.19.5.52.5.88,0,.36-.17.7-.47.9l-14.8,9.81c-.17.11-.37.17-.56.17-.35,0-.69-.16-.9-.47-.32-.48-.19-1.14.3-1.46l11.82-7.83c-17.62.05-33.52-3.48-46.07-10.26-6.82-3.68-12.58-8.29-17.12-13.68-4.77-5.68-8.18-12.23-10.15-19.49C-2.47,47.69-.33,33.35,9.89,18.95,17.01,8.92,29.33,2.19,43.69.48c.66-.08,1.36-.15,2.1-.22,7.11-.63,18.32-.49,36.58,4.75.56.16.88.74.72,1.3-.16.56-.74.88-1.3.72Z"/>
</svg>